<?xml version="1.0" encoding="UTF-8"?>
<svg version="1.1" xmlns="http://www.w3.org/2000/svg" width="1024" height="1024">
<path d="M0 0 C8.25948875 7.79228534 12.76829054 18.52894125 13.9375 29.6875 C14.01790527 30.40091553 14.09831055 31.11433105 14.18115234 31.84936523 C15.05860963 40.50887705 14.92172866 49.18362167 14.75 57.875 C15.80429451 57.71248025 16.85858902 57.5499605 17.94483185 57.38251591 C23.83132052 56.65311512 29.70953781 56.74034928 35.63269043 56.75474548 C36.92176127 56.75389106 38.21083211 56.75303663 39.5389657 56.75215632 C43.10099643 56.74992867 46.66299688 56.75390888 50.22502375 56.75893438 C54.07222648 56.7632636 57.91942759 56.7617907 61.76663208 56.7610321 C68.42687889 56.76050844 75.08711589 56.76363884 81.74736023 56.76926994 C91.37688702 56.77740621 101.00640908 56.78000235 110.63593894 56.78125793 C126.260225 56.78344511 141.88450584 56.79009614 157.50878906 56.79956055 C172.68391901 56.80874331 187.85904753 56.81581992 203.03417969 56.82006836 C203.96999451 56.82033108 204.90580933 56.82059381 205.86998218 56.82086449 C210.56481547 56.82216955 215.25964877 56.82343326 219.95448208 56.82467639 C258.88632505 56.83503859 297.81816218 56.85264782 336.75 56.875 C336.42 55.885 336.09 54.895 335.75 53.875 C335.63662888 49.72697439 335.8480704 45.58333647 336 41.4375 C336.02707031 40.31150391 336.05414062 39.18550781 336.08203125 38.02539062 C336.5442082 25.06207255 338.98941917 12.39832344 347.92578125 2.5390625 C361.63561719 -9.96712618 379.77820388 -9.7701769 397.23095703 -9.26123047 C409.69665806 -8.58708226 421.37764641 -4.69699963 430 4.5859375 C438.82958443 16.13534928 440.22295642 30.60103861 439.9375 44.625 C439.92396484 45.90632813 439.91042969 47.18765625 439.89648438 48.5078125 C439.86152705 51.63066695 439.8124609 54.75259541 439.75 57.875 C440.719375 57.88917969 441.68875 57.90335937 442.6875 57.91796875 C465.39675584 58.58470975 487.30260716 68.2633642 503.30859375 84.46484375 C528.36009769 113.23394018 521.8953425 156.22595012 521.82549977 191.61312521 C521.8149189 197.54146711 521.81031448 203.46981444 521.80482483 209.39816284 C521.79100898 222.98816973 521.76850994 236.57815627 521.74473595 250.16814872 C521.73304812 256.89575807 521.72272621 263.62336931 521.71257466 270.35098113 C521.67774969 293.42056654 521.64087158 316.49014715 521.59641647 339.55971622 C521.59504325 340.27360651 521.59367003 340.9874968 521.5922552 341.72302013 C521.58669123 344.61552073 521.58112124 347.50802133 521.57555156 350.40052193 C521.57136135 352.57715459 521.56717459 354.75378725 521.56298828 356.93041992 C521.56160283 357.64965766 521.56021738 358.36889539 521.55878994 359.10992821 C521.51388519 382.46506171 521.4813207 405.82018964 521.45614339 429.1753522 C521.42941966 453.92383038 521.39190811 478.67226885 521.34196877 503.42071146 C521.33652427 506.13838375 521.33112268 508.85605612 521.32575226 511.57372856 C521.32376119 512.57732896 521.32376119 512.57732896 521.32172989 513.60120411 C521.30197044 523.6782015 521.29031015 533.75518752 521.28295135 543.832201 C521.27446782 555.29000005 521.25577299 566.7477257 521.22384754 578.2054844 C521.20787452 584.04637681 521.19665201 589.88717401 521.19845009 595.72809029 C521.19998091 601.08127901 521.18763991 606.43425517 521.16455176 611.78739267 C521.1586166 613.71693388 521.15763155 615.64649852 521.16228315 617.57604326 C521.21430444 642.06381099 516.31160459 664.06720023 498.625 682.12109375 C480.88959208 699.109494 458.08372857 705.06230889 434.07839584 705.00363445 C433.15426484 705.00538749 432.23013384 705.00714053 431.27799886 705.00894669 C428.19441157 705.01358298 425.11087192 705.01114732 422.02728271 705.00871277 C419.78886287 705.01058193 417.55044336 705.01288306 415.31202435 705.01557809 C409.17058815 705.02168941 403.02916557 705.02156328 396.88772702 705.02038372 C390.94140811 705.02020052 384.99509318 705.0246932 379.04877623 705.0289966 C365.38758796 705.03865739 351.72640345 705.04148037 338.06521216 705.04205366 C327.51398651 705.04251355 316.96276234 705.04457369 306.41153717 705.04775429 C303.37222648 705.04865186 300.33291578 705.04954167 297.29360509 705.05042917 C296.16017174 705.05076074 296.16017174 705.05076074 295.00384074 705.05109901 C273.75550431 705.05725144 252.50716839 705.06119975 231.25883102 705.06075573 C230.45805112 705.06074015 229.65727122 705.06072457 228.83222526 705.06070852 C224.77371874 705.06062542 220.71521222 705.06052638 216.65670571 705.06042381 C215.44769659 705.0603939 215.44769659 705.0603939 214.21426305 705.06036337 C212.5843232 705.06032294 210.95438334 705.06028114 209.32444349 705.06023798 C183.96677821 705.05962527 158.6091263 705.06713186 133.25146484 705.08081055 C104.74945185 705.09617913 76.24744763 705.10477631 47.74543023 705.10384732 C44.70486212 705.1037727 41.66429401 705.10372399 38.62372589 705.10369301 C37.50076321 705.10367553 37.50076321 705.10367553 36.35511442 705.10365769 C24.32080418 705.10362695 12.28650558 705.11000586 0.2521988 705.11862527 C-11.84730912 705.12711202 -23.94680007 705.12808369 -36.04630932 705.12151595 C-42.59783752 705.11815121 -49.14933212 705.11819497 -55.70085716 705.1268692 C-61.70275481 705.13473393 -67.70457704 705.13330295 -73.70647284 705.12458507 C-75.8733 705.12305004 -78.04013279 705.12486633 -80.20695332 705.13044515 C-110.06332467 705.20220061 -132.58675375 700.0969579 -154.25 678.875 C-169.33790412 663.78709588 -173.1553587 640.72304621 -173.56185722 620.35922623 C-173.58232969 619.47110374 -173.60280216 618.58298124 -173.623895 617.66794595 C-173.68885738 614.76473377 -173.74719973 611.86144348 -173.80441284 608.95806885 C-173.82538437 607.94644307 -173.84635591 606.9348173 -173.86796294 605.89253619 C-174.29557743 585.0750062 -174.39497944 564.26304795 -174.38072467 543.44179034 C-174.37839838 538.37714186 -174.38198477 533.31249633 -174.38470459 528.24784851 C-174.38908518 518.40212033 -174.38822122 508.5563999 -174.38529195 498.71067145 C-174.38300853 490.69575757 -174.38273791 482.68084582 -174.38381577 474.6659317 C-174.383969 473.51355373 -174.38412223 472.36117577 -174.38428011 471.17387725 C-174.38459991 468.83104569 -174.38492413 466.48821412 -174.3852527 464.14538255 C-174.38808447 442.3277232 -174.38485616 420.51006809 -174.37945233 398.69240943 C-174.37497919 380.05616797 -174.37576892 361.41993275 -174.38037109 342.78369141 C-174.38574544 321.01114241 -174.38781748 299.23859709 -174.38475883 277.46604753 C-174.38444036 275.13679139 -174.38412598 272.80753525 -174.38381577 270.47827911 C-174.38366149 269.33294234 -174.38350721 268.18760556 -174.38334826 267.00756161 C-174.3824922 259.01547463 -174.383926 251.02339002 -174.38629532 243.03130341 C-174.38912518 233.27385185 -174.38828852 223.51640831 -174.38301457 213.75895765 C-174.38042109 208.80061896 -174.37929678 203.84229354 -174.38266373 198.883955 C-174.39331859 181.3808004 -174.38186232 163.87513345 -173.97782622 146.3757464 C-173.94639996 144.96437723 -173.91903414 143.55290962 -173.896446 142.14137134 C-173.68624624 129.71715042 -172.39084369 117.01487489 -167.0625 105.625 C-166.60858887 104.62980347 -166.60858887 104.62980347 -166.14550781 103.61450195 C-156.24808872 82.69265469 -138.44456516 69.73146583 -117.25 61.875 C-110.21514153 59.64771506 -103.03170766 58.40768881 -95.74609375 57.3046875 C-93.13106554 56.91907799 -93.13106554 56.91907799 -90.25 55.875 C-90.26571045 55.22128418 -90.2814209 54.56756836 -90.29760742 53.89404297 C-91.06710419 16.96469177 -91.06710419 16.96469177 -79.140625 3.4921875 C-60.94093231 -13.51511153 -19.77700056 -15.9189872 0 0 Z M-72.02818012 131.19585705 C-72.83640766 131.21781891 -73.6446352 131.23978078 -74.47735448 131.26240816 C-83.00208987 131.64778141 -90.63110673 134.34645183 -96.84765625 140.44140625 C-107.67667532 152.33470238 -105.39869473 168.44017525 -105.37698364 183.54121399 C-105.37813782 185.30232071 -105.37972733 187.06342718 -105.38171089 188.82453316 C-105.38586361 193.6327504 -105.38383193 198.44094765 -105.38072467 203.24916494 C-105.37845414 208.44697474 -105.38195843 213.6447812 -105.38470459 218.84259033 C-105.38914388 229.01366357 -105.38819392 239.18472941 -105.38529195 249.35580293 C-105.38303032 257.62623748 -105.38272869 265.89666995 -105.38381577 274.16710472 C-105.383969 275.34580304 -105.38412223 276.52450135 -105.38428011 277.73891779 C-105.38459985 280.13372515 -105.38492406 282.52853251 -105.3852527 284.92333987 C-105.3881022 307.36408401 -105.38482897 329.80482405 -105.37945233 352.24556752 C-105.37498652 371.47971308 -105.37575942 390.7138526 -105.38037109 409.94799805 C-105.38572922 432.3057419 -105.38782572 454.66348218 -105.38475883 477.02122658 C-105.3844403 479.40796705 -105.38412593 481.79470752 -105.38381577 484.18144798 C-105.38366149 485.35563683 -105.38350721 486.52982568 -105.38334826 487.73959601 C-105.3824867 495.99373437 -105.38393826 504.24787044 -105.38629532 512.50200844 C-105.38910734 522.57039198 -105.38832559 532.63876772 -105.38301457 542.70715038 C-105.3803962 547.83922753 -105.37934073 552.97129172 -105.38266373 558.10336876 C-105.38566537 562.81055543 -105.38397009 567.51771725 -105.37868617 572.2249017 C-105.37757836 573.91859521 -105.37811636 575.61229087 -105.38056196 577.30598298 C-106.18683303 600.61025969 -106.18683303 600.61025969 -98.25 621.875 C-97.59 621.875 -96.93 621.875 -96.25 621.875 C-96.25 622.535 -96.25 623.195 -96.25 623.875 C-94.83671871 624.69337442 -93.41921654 625.50446219 -92 626.3125 C-90.81664062 626.99119141 -90.81664062 626.99119141 -89.609375 627.68359375 C-84.77245005 630.12608069 -80.09803751 630.01806707 -74.76844406 630.00642776 C-73.4659126 630.00950672 -73.4659126 630.00950672 -72.13706738 630.01264787 C-69.20714787 630.01833348 -66.27727514 630.01685869 -63.34735107 630.01544189 C-61.23357726 630.01802463 -59.11980392 630.02103753 -57.00603127 630.0244453 C-51.18150378 630.03252923 -45.3569886 630.03430564 -39.53245616 630.03504276 C-33.2569195 630.03689089 -26.98138927 630.04443698 -20.70585632 630.05117798 C-6.26053931 630.06548051 8.18477449 630.07128901 22.63009726 630.07586992 C29.76725491 630.07820538 36.90441176 630.08180796 44.04156878 630.0855653 C68.46928185 630.09840082 92.89699447 630.10912026 117.32471085 630.1125679 C118.85827811 630.11278953 120.39184538 630.11301132 121.92541264 630.11323325 C123.46269773 630.11345389 124.99998283 630.11367438 126.53726792 630.1138947 C129.62136221 630.11433726 132.7054565 630.11478437 135.78955078 630.11523438 C136.55422747 630.11534377 137.31890415 630.11545316 138.10675285 630.11556586 C162.90554413 630.11919709 187.70430619 630.13511962 212.50308627 630.15842474 C238.71741492 630.18301514 264.93172686 630.19674036 291.14606738 630.19793582 C294.02316714 630.19810728 296.90026689 630.19832271 299.77736664 630.19857025 C300.48579745 630.19862602 301.19422826 630.19868179 301.92412667 630.19873925 C313.3295331 630.19989035 324.73490956 630.21091732 336.14030587 630.22545731 C347.60193323 630.23981644 359.06350814 630.24280987 370.52514467 630.23501733 C376.73566849 630.23110292 382.94609137 630.23207904 389.15660286 630.24607468 C394.84018665 630.25876598 400.52359316 630.25765809 406.20717654 630.24548396 C408.26506086 630.24351869 410.32295754 630.24664351 412.38082448 630.25532833 C415.17579215 630.26637862 417.97012952 630.25896214 420.7650795 630.2469368 C421.56594921 630.25453199 422.36681892 630.26212718 423.19195741 630.26995254 C431.52383683 630.1924467 437.85866765 627.52779248 443.98828125 621.84375 C449.65448627 615.51167166 450.90198229 608.61705349 450.88142776 600.36730766 C450.8834804 599.60423172 450.88553303 598.84115577 450.88764787 598.05495632 C450.8933284 595.48314451 450.89185932 592.91138608 450.89044189 590.33956909 C450.89302493 588.4829582 450.89603792 586.62634787 450.8994453 584.76973832 C450.90752587 579.65596928 450.90930546 574.54221428 450.91004276 569.42843962 C450.9118915 563.91769756 450.91943796 558.40696282 450.92617798 552.89622498 C450.93976965 540.84039075 450.94578741 528.78455985 450.95018864 516.72871923 C450.95294983 509.20274249 450.95718697 501.67676704 450.96169281 494.15079117 C450.9738869 473.31896238 450.9842211 452.48713428 450.9875679 431.65530205 C450.98778953 430.30809339 450.98801132 428.96088473 450.98823325 427.61367608 C450.98845389 426.26321694 450.98867438 424.9127578 450.9888947 423.56229866 C450.98933725 420.85305587 450.98978437 418.14381309 450.99023438 415.43457031 C450.99034377 414.76283539 450.99045316 414.09110047 450.99056586 413.39900995 C450.99419594 391.62130854 451.01011388 369.84364043 451.03342474 348.06595177 C451.05802702 325.0396566 451.07173422 302.01337682 451.07293582 278.98706639 C451.0738529 266.43582597 451.07961351 253.88462914 451.09775543 241.33340073 C451.11314958 230.6453795 451.11828094 219.95741534 451.11001733 209.26938514 C451.10610833 203.81605793 451.1070527 198.36284565 451.12107468 192.90953255 C451.13379846 187.91542698 451.13262936 182.92152288 451.12048396 177.92741765 C451.11852433 176.1225241 451.12161769 174.31761634 451.13032833 172.51274274 C451.19076482 159.14149114 450.83329625 148.97387062 441.0546875 139.0078125 C429.65021504 128.45384307 411.56179812 130.58460771 396.93403625 130.62776184 C394.96368884 130.62617067 392.99334197 130.62370403 391.0229966 130.62044543 C385.64551988 130.6140718 380.26811921 130.62006908 374.89064753 130.62820971 C369.07656604 130.63481831 363.26249262 130.6298313 357.44841003 130.62632751 C346.07174983 130.6212973 334.69511881 130.62691278 323.31846223 130.63617782 C310.72663102 130.64606163 298.13480563 130.64654544 285.54297132 130.64607801 C260.47828557 130.64517294 235.41361496 130.65510024 210.34893447 130.67050768 C188.11876986 130.68412247 165.88861601 130.69036922 143.65844727 130.68969727 C142.23164427 130.68965685 140.80484127 130.68961649 139.37803826 130.68957619 C138.67262885 130.68955584 137.96721943 130.68953548 137.24043397 130.68951452 C133.68889859 130.68941371 130.13736321 130.68932313 126.58582783 130.68924427 C125.88504433 130.68922756 125.18426084 130.68921084 124.46224148 130.68919362 C105.84798264 130.68882768 87.23372515 130.69337554 68.61946744 130.69957083 C67.95648406 130.69979111 67.29350068 130.70001138 66.6104269 130.70023832 C63.28182826 130.70134739 59.95322962 130.70246906 56.62463099 130.70360712 C47.39301161 130.70661485 38.16139315 130.70768566 28.92977333 130.70813942 C17.66590133 130.70882405 6.4020378 130.7133231 -4.86183061 130.72247223 C-10.6019958 130.72706583 -16.3421502 130.7301448 -22.08231735 130.72887802 C-27.34969542 130.72777201 -32.61704975 130.73136734 -37.88442288 130.73852655 C-39.77731832 130.74031942 -41.67021625 130.74049052 -43.56311174 130.73875926 C-53.05588019 130.73104675 -62.54162432 130.83455008 -72.02818012 131.19585705 Z " fill="#558FFE" transform="translate(337.25,146.125)"/>
<path d="M0 0 C6.02446115 4.64975189 10.83782256 11.25221891 12.328125 18.796875 C14.32919777 36.38130198 4.86656778 51.51936015 -5.671875 64.796875 C-13.46200016 73.69545991 -21.78809239 82.07595786 -30.14453125 90.4375 C-31.40204234 91.69823352 -32.65948217 92.95903812 -33.91685486 94.21990967 C-36.52444128 96.83342245 -39.13402286 99.44492366 -41.74487305 102.05517578 C-45.09575501 105.40595491 -48.43963174 108.7636362 -51.78191471 112.12298965 C-54.36320228 114.71534988 -56.94897534 117.30319897 -59.53606987 119.88976288 C-60.77250152 121.12737592 -62.00730884 122.36661393 -63.24046516 123.60749054 C-64.95128658 125.32804278 -66.66824541 127.04222337 -68.38696289 128.75488281 C-68.89548294 129.26902237 -69.40400299 129.78316193 -69.92793274 130.31288147 C-73.44353925 133.796875 -73.44353925 133.796875 -75.671875 133.796875 C-75.89182129 134.34148376 -76.11176758 134.88609253 -76.33837891 135.44720459 C-78.10534548 138.56066634 -80.48729525 140.89096362 -83.0078125 143.39160156 C-83.55109192 143.93838562 -84.09437134 144.48516968 -84.65411377 145.04852295 C-86.44671023 146.84990448 -88.24650242 148.64389268 -90.046875 150.4375 C-91.29505211 151.68702429 -92.54293219 152.93684535 -93.79052734 154.18695068 C-96.40333477 156.80270468 -99.01972101 159.41481146 -101.63867188 162.02441406 C-105.00162739 165.37595176 -108.355494 168.73641889 -111.70675659 172.09964371 C-114.28013084 174.68022899 -116.85822978 177.25605146 -119.43780518 179.83043671 C-120.67688999 181.06818415 -121.91448203 182.3074278 -123.15057373 183.54816437 C-124.87424739 185.27689337 -126.60416023 186.99912081 -128.3359375 188.71972656 C-128.84924622 189.23708374 -129.36255493 189.75444092 -129.89141846 190.28747559 C-133.44334316 193.796875 -133.44334316 193.796875 -135.671875 193.796875 C-135.919375 194.374375 -136.166875 194.951875 -136.421875 195.546875 C-137.85487488 198.12627479 -139.45612176 199.85809092 -141.671875 201.796875 C-142.331875 201.796875 -142.991875 201.796875 -143.671875 201.796875 C-143.94 202.395 -144.208125 202.993125 -144.484375 203.609375 C-145.67104906 205.79535354 -146.76786613 207.21020094 -148.671875 208.796875 C-149.331875 208.796875 -149.991875 208.796875 -150.671875 208.796875 C-150.94 209.43625 -151.208125 210.075625 -151.484375 210.734375 C-152.671875 212.796875 -152.671875 212.796875 -155.671875 213.796875 C-156.001875 214.786875 -156.331875 215.776875 -156.671875 216.796875 C-158.03613281 218.13330078 -158.03613281 218.13330078 -159.875 219.6171875 C-163.8471941 222.98630138 -167.50939393 226.57746553 -171.15625 230.2890625 C-171.74208862 230.88293762 -172.32792725 231.47681274 -172.93151855 232.08868408 C-175.37419083 234.5670092 -177.81373027 237.04824133 -180.24316406 239.53955078 C-204.67042907 264.55280678 -204.67042907 264.55280678 -220.484375 265.828125 C-243.39041922 265.5008958 -259.25502759 247.57937692 -274.16015625 232.24609375 C-276.21238265 230.24493364 -278.29536151 228.37290911 -280.46484375 226.50390625 C-285.45877103 222.17249227 -290.04570814 217.47433418 -294.671875 212.7578125 C-298.60762655 208.77593886 -302.64870563 205.00915321 -306.890625 201.35546875 C-309.08887548 199.43199958 -311.13842652 197.39289113 -313.171875 195.296875 C-316.54655006 191.87589222 -320.03432111 188.68913053 -323.68359375 185.56640625 C-326.59400853 182.97619428 -329.2973259 180.19531412 -332.0078125 177.3984375 C-333.59610233 175.71058776 -333.59610233 175.71058776 -335.671875 174.796875 C-335.671875 174.136875 -335.671875 173.476875 -335.671875 172.796875 C-336.24035156 172.55582031 -336.80882812 172.31476563 -337.39453125 172.06640625 C-340.11976408 170.54719412 -341.93877839 168.72268519 -344.109375 166.484375 C-344.85058594 165.72511719 -345.59179688 164.96585938 -346.35546875 164.18359375 C-347.11988281 163.39597656 -347.88429688 162.60835937 -348.671875 161.796875 C-352.10546784 158.29151896 -355.66893167 155.02909239 -359.359375 151.796875 C-371.56018637 140.81576539 -380.63814232 128.61085353 -381.671875 111.796875 C-381.26812863 105.61644976 -378.21948724 100.69831142 -374.671875 95.796875 C-374.24003906 95.19875 -373.80820312 94.600625 -373.36328125 93.984375 C-367.49902132 86.54191481 -359.10772645 80.46640954 -349.671875 78.796875 C-335.17374859 77.31935893 -324.90894212 82.24107227 -313.8203125 91.06640625 C-305.74649609 97.68502097 -298.20063057 104.8668193 -290.6328125 112.05078125 C-285.49757782 116.92232782 -280.26942904 121.68366481 -274.91650391 126.31591797 C-269.13362748 131.3328505 -263.57467114 136.56142949 -258.02734375 141.8359375 C-253.92896999 145.71703002 -249.7676928 149.49701678 -245.50244141 153.19384766 C-243.88344634 154.61160194 -242.29899754 156.05427631 -240.73046875 157.52734375 C-232.36032031 165.65539275 -232.36032031 165.65539275 -221.671875 169.796875 C-221.341875 169.136875 -221.011875 168.476875 -220.671875 167.796875 C-219.95 167.70019531 -219.228125 167.60351562 -218.484375 167.50390625 C-214.62398705 166.53344761 -212.43515372 164.19622794 -209.671875 161.484375 C-208.65160609 160.50852413 -207.63073678 159.53330073 -206.609375 158.55859375 C-206.0479524 158.01719096 -205.48652981 157.47578817 -204.90809441 156.91797924 C-202.77088244 154.89078578 -200.6016259 152.90221847 -198.42447364 150.91811723 C-190.5605104 143.73239687 -183.02020564 136.25516402 -175.51904297 128.6940918 C-174.15593503 127.32413313 -172.79256448 125.95443572 -171.42895508 124.5849762 C-168.52003444 121.66284748 -165.61257224 118.73927841 -162.70617294 115.81464195 C-158.10238205 111.18273974 -153.49294346 106.5564852 -148.88235474 101.93135071 C-147.2966293 100.34048329 -145.7109112 98.74960857 -144.12520027 97.15872669 C-143.33186735 96.36280821 -142.53853444 95.56688974 -141.72116113 94.74685252 C-131.0081396 83.99792027 -120.30001744 73.24414105 -109.60205078 62.48022461 C-102.35643099 55.19002902 -95.10364512 47.90704467 -87.84274781 40.63206416 C-84.01136379 36.79263733 -80.18373762 32.94962666 -76.36498642 29.09763145 C-72.77674889 25.47820115 -69.1791822 21.8683085 -65.57444763 18.26531029 C-64.25967123 16.94785326 -62.94829098 15.62699609 -61.64073563 14.30237198 C-43.80025145 -3.76071349 -24.05351888 -15.27927929 0 0 Z " fill="#5590FE" transform="translate(708.671875,402.203125)"/>
<path d="M0 0 C5.61 0 11.22 0 17 0 C17 0.33 17 0.66 17 1 C177.38 1 337.76 1 503 1 C503 0.67 503 0.34 503 0 C523.13 0 543.26 0 564 0 C564 0.33 564 0.66 564 1 C551.11079133 3.04239141 538.48774935 3.27832449 525.46154785 3.24050903 C523.20797188 3.24138258 520.9543961 3.24313629 518.7008214 3.24568737 C512.54589007 3.25013565 506.39102902 3.24219203 500.23610663 3.23213124 C494.26891979 3.22435434 488.30173753 3.22605501 482.33454746 3.22749493 C470.1386666 3.23011415 457.94280751 3.22347265 445.74693298 3.21146011 C433.68033236 3.19960551 421.61374081 3.19192408 409.5471344 3.18975449 C408.79544793 3.18961701 408.04376147 3.18947953 407.26929662 3.18933788 C403.45149558 3.18866117 399.63369453 3.18805842 395.81589347 3.18748413 C368.8100361 3.18328897 341.80419056 3.16983008 314.79833984 3.15087891 C288.57080142 3.13249522 262.34326624 3.11833526 236.11572266 3.10986328 C235.30655471 3.10960023 234.49738677 3.10933718 233.66369859 3.10906615 C225.53732637 3.106429 217.41095413 3.10387739 209.28458186 3.10138843 C192.73183533 3.0963167 176.179089 3.09067419 159.62634277 3.08468628 C158.484867 3.08427441 158.484867 3.08427441 157.32033112 3.08385422 C106.5468824 3.06546863 55.77344057 3.03373834 5 3 C5 2.67 5 2.34 5 2 C3.35 1.67 1.7 1.34 0 1 C0 0.67 0 0.34 0 0 Z " fill="#5E91F8" transform="translate(233,848)"/>
<path d="M0 0 C0.66 0.33 1.32 0.66 2 1 C1.68377223 3.00277585 1.34450114 5.00189338 1 7 C0.85433594 7.85464844 0.70867187 8.70929688 0.55859375 9.58984375 C0.39488281 10.48832031 0.23117188 11.38679688 0.0625 12.3125 C-0.09089844 13.17488281 -0.24429688 14.03726562 -0.40234375 14.92578125 C-0.59957031 15.61027344 -0.79679688 16.29476563 -1 17 C-1.66 17.33 -2.32 17.66 -3 18 C-3.42765417 11.58518742 -1.85743168 6.11404596 0 0 Z " fill="#5D93FA" transform="translate(168,257)"/>
<path d="M0 0 C4.455 0.99 4.455 0.99 9 2 C9 2.66 9 3.32 9 4 C6.36 3.67 3.72 3.34 1 3 C0.67 2.01 0.34 1.02 0 0 Z " fill="#5D94FB" transform="translate(791,205)"/>
<path d="M0 0 C3 1 3 1 3 1 Z " fill="#5D8EF5" transform="translate(725,852)"/>
<path d="M0 0 C3 1 3 1 3 1 Z " fill="#5D8FF4" transform="translate(653,852)"/>
<path d="M0 0 C3 1 3 1 3 1 Z " fill="#5E8FF5" transform="translate(581,852)"/>
<path d="M0 0 C2 1 2 1 2 1 Z " fill="#5E8FF4" transform="translate(769,852)"/>
<path d="M0 0 C2 1 2 1 2 1 Z " fill="#5D8FF3" transform="translate(681,852)"/>
<path d="M0 0 C2 1 2 1 2 1 Z " fill="#5E8FF6" transform="translate(420,852)"/>
<path d="M0 0 C2 1 2 1 2 1 Z " fill="#5F8EF1" transform="translate(236,852)"/>
<path d="M0 0 C2 1 2 1 2 1 Z " fill="#5E8EF2" transform="translate(233,851)"/>
<path d="M0 0 C2 1 2 1 2 1 Z " fill="#5D91F4" transform="translate(805,847)"/>
<path d="" fill="#608FF3" transform="translate(0,0)"/>
<path d="" fill="#5C90F2" transform="translate(0,0)"/>
<path d="M0 0 C2 1 2 1 2 1 Z " fill="#5D93F8" transform="translate(390,488)"/>
<path d="M0 0 C2 1 2 1 2 1 Z " fill="#5E94F6" transform="translate(374,480)"/>
<path d="" fill="#3A465E" transform="translate(0,0)"/>
<path d="" fill="#5F8EF3" transform="translate(0,0)"/>
<path d="" fill="#5F8EF4" transform="translate(0,0)"/>
<path d="" fill="#5E90F6" transform="translate(0,0)"/>
<path d="" fill="#5D8EF5" transform="translate(0,0)"/>
<path d="" fill="#5E8FF4" transform="translate(0,0)"/>
<path d="" fill="#5F8FF3" transform="translate(0,0)"/>
<path d="" fill="#5D90F5" transform="translate(0,0)"/>
<path d="" fill="#5F91F5" transform="translate(0,0)"/>
<path d="" fill="#5E91F5" transform="translate(0,0)"/>
<path d="" fill="#5C90F4" transform="translate(0,0)"/>
<path d="" fill="#5E8FF5" transform="translate(0,0)"/>
<path d="" fill="#5C8DF5" transform="translate(0,0)"/>
<path d="" fill="#5F90F6" transform="translate(0,0)"/>
<path d="" fill="#5C8FF4" transform="translate(0,0)"/>
<path d="" fill="#5F8FF3" transform="translate(0,0)"/>
<path d="" fill="#5F90F5" transform="translate(0,0)"/>
<path d="" fill="#5D91F7" transform="translate(0,0)"/>
<path d="" fill="#5E90F6" transform="translate(0,0)"/>
<path d="" fill="#5F8FF4" transform="translate(0,0)"/>
<path d="" fill="#5E8FF6" transform="translate(0,0)"/>
<path d="" fill="#5E8EF7" transform="translate(0,0)"/>
<path d="" fill="#5F8EF7" transform="translate(0,0)"/>
<path d="" fill="#5E91F5" transform="translate(0,0)"/>
<path d="" fill="#5E90F6" transform="translate(0,0)"/>
<path d="" fill="#5E8FF6" transform="translate(0,0)"/>
<path d="" fill="#5E8FF5" transform="translate(0,0)"/>
<path d="" fill="#5E8FF6" transform="translate(0,0)"/>
<path d="" fill="#5E91F6" transform="translate(0,0)"/>
<path d="" fill="#5F90F6" transform="translate(0,0)"/>
<path d="" fill="#5E8FF7" transform="translate(0,0)"/>
<path d="" fill="#5D8DF5" transform="translate(0,0)"/>
<path d="" fill="#5D8FF6" transform="translate(0,0)"/>
<path d="" fill="#5F90F5" transform="translate(0,0)"/>
<path d="" fill="#5F91F5" transform="translate(0,0)"/>
<path d="" fill="#608EF4" transform="translate(0,0)"/>
<path d="" fill="#6190F3" transform="translate(0,0)"/>
<path d="" fill="#6190F4" transform="translate(0,0)"/>
<path d="" fill="#6091F2" transform="translate(0,0)"/>
<path d="" fill="#5E90F4" transform="translate(0,0)"/>
<path d="" fill="#5D90F3" transform="translate(0,0)"/>
<path d="" fill="#5E8FF0" transform="translate(0,0)"/>
<path d="" fill="#5F90F2" transform="translate(0,0)"/>
<path d="" fill="#5B8FF3" transform="translate(0,0)"/>
<path d="" fill="#618FEC" transform="translate(0,0)"/>
<path d="" fill="#618EED" transform="translate(0,0)"/>
<path d="" fill="#608DF2" transform="translate(0,0)"/>
<path d="" fill="#5E8FF2" transform="translate(0,0)"/>
<path d="" fill="#5D93FB" transform="translate(0,0)"/>
<path d="" fill="#5E93FB" transform="translate(0,0)"/>
<path d="" fill="#6296F9" transform="translate(0,0)"/>
<path d="" fill="#6395FB" transform="translate(0,0)"/>
<path d="" fill="#6195FD" transform="translate(0,0)"/>
<path d="" fill="#5E91F7" transform="translate(0,0)"/>
<path d="" fill="#5E92F7" transform="translate(0,0)"/>
<path d="" fill="#5E94FA" transform="translate(0,0)"/>
<path d="" fill="#5E91F8" transform="translate(0,0)"/>
<path d="" fill="#5F91FA" transform="translate(0,0)"/>
<path d="" fill="#5D93FA" transform="translate(0,0)"/>
<path d="" fill="#5F93FC" transform="translate(0,0)"/>
<path d="" fill="#5E94FB" transform="translate(0,0)"/>
<path d="" fill="#5F93FB" transform="translate(0,0)"/>
<path d="" fill="#5E92FB" transform="translate(0,0)"/>
<path d="" fill="#5B92FD" transform="translate(0,0)"/>
<path d="" fill="#5A93FC" transform="translate(0,0)"/>
<path d="" fill="#5C92FA" transform="translate(0,0)"/>
<path d="" fill="#5D93FC" transform="translate(0,0)"/>
<path d="" fill="#6194FB" transform="translate(0,0)"/>
<path d="" fill="#5F93F9" transform="translate(0,0)"/>
<path d="" fill="#6297FB" transform="translate(0,0)"/>
<path d="" fill="#5D91FC" transform="translate(0,0)"/>
<path d="" fill="#6092F7" transform="translate(0,0)"/>
<path d="" fill="#5F96F7" transform="translate(0,0)"/>
<path d="" fill="#5F93FB" transform="translate(0,0)"/>
<path d="" fill="#6192F8" transform="translate(0,0)"/>
<path d="" fill="#6092F9" transform="translate(0,0)"/>
<path d="" fill="#5F94F8" transform="translate(0,0)"/>
<path d="" fill="#5F94FA" transform="translate(0,0)"/>
<path d="" fill="#5F95F9" transform="translate(0,0)"/>
<path d="" fill="#6195F8" transform="translate(0,0)"/>
<path d="" fill="#5F94FC" transform="translate(0,0)"/>
<path d="" fill="#5E93FE" transform="translate(0,0)"/>
<path d="" fill="#5F95FF" transform="translate(0,0)"/>
<path d="" fill="#5B95FD" transform="translate(0,0)"/>
<path d="" fill="#5F94FD" transform="translate(0,0)"/>
<path d="" fill="#5E94FA" transform="translate(0,0)"/>
<path d="" fill="#5F94FC" transform="translate(0,0)"/>
<path d="" fill="#5E93FA" transform="translate(0,0)"/>
<path d="" fill="#5D95FA" transform="translate(0,0)"/>
<path d="" fill="#5E94FA" transform="translate(0,0)"/>
<path d="" fill="#5F92FC" transform="translate(0,0)"/>
<path d="" fill="#6091F0" transform="translate(0,0)"/>
<path d="" fill="#6090F0" transform="translate(0,0)"/>
<path d="" fill="#6190EF" transform="translate(0,0)"/>
<path d="" fill="#5F90F0" transform="translate(0,0)"/>
<path d="" fill="#5E90F0" transform="translate(0,0)"/>
<path d="" fill="#6191F1" transform="translate(0,0)"/>
<path d="" fill="#6090F1" transform="translate(0,0)"/>
<path d="" fill="#618FF1" transform="translate(0,0)"/>
<path d="" fill="#6191F4" transform="translate(0,0)"/>
<path d="" fill="#5F91F4" transform="translate(0,0)"/>
<path d="" fill="#6094F7" transform="translate(0,0)"/>
<path d="" fill="#6095FC" transform="translate(0,0)"/>
<path d="" fill="#5F92F9" transform="translate(0,0)"/>
<path d="" fill="#5C91F2" transform="translate(0,0)"/>
<path d="" fill="#5F8EEA" transform="translate(0,0)"/>
<path d="" fill="#5C8EEF" transform="translate(0,0)"/>
<path d="" fill="#5C8FF0" transform="translate(0,0)"/>
<path d="" fill="#5E91F1" transform="translate(0,0)"/>
<path d="" fill="#5C8FEF" transform="translate(0,0)"/>
</svg>
